HIERARCHY
ROOT Hips
{
	OFFSET	0.00	0.00	0.00
	CHANNELS 6 Xposition Yposition Zposition Zrotation Xrotation Yrotation
	JOINT LeftUpLeg
	{
		OFFSET	 0.126116	-0.014019	-0.065224
		CHANNELS 3 Zrotation Xrotation Yrotation
		JOINT LeftLeg
		{
			OFFSET	 0.000000	 0.000000	 0.569914
			CHANNELS 3 Zrotation Xrotation Yrotation
			JOINT LeftFoot
			{
				OFFSET	 0.000000	 0.000000	 0.544423
				CHANNELS 3 Zrotation Xrotation Yrotation
				JOINT LeftToeBase
				{
					OFFSET	 0.000000	 0.000000	 0.207117
					CHANNELS 3 Zrotation Xrotation Yrotation
					End Site
					{
						OFFSET	 0.000000	 0.000000	 0.207117
					}
				}
			}
		}
	}
	JOINT RightUpLeg
	{
		OFFSET	-0.124023	-0.008373	-0.065224
		CHANNELS 3 Zrotation Xrotation Yrotation
		JOINT RightLeg
		{
			OFFSET	 0.000000	 0.000000	 0.570047
			CHANNELS 3 Zrotation Xrotation Yrotation
			JOINT RightFoot
			{
				OFFSET	 0.000000	 0.000000	 0.544354
				CHANNELS 3 Zrotation Xrotation Yrotation
				JOINT RightToeBase
				{
					OFFSET	 0.000000	 0.000000	 0.207540
					CHANNELS 3 Zrotation Xrotation Yrotation
					End Site
					{
						OFFSET	 0.000000	 0.000000	 0.207540
					}
				}
			}
		}
	}
	JOINT Spine
	{
		OFFSET	 0.000184	-0.007763	 0.117403
		CHANNELS 3 Zrotation Xrotation Yrotation
		JOINT Spine1
		{
			OFFSET	 0.000000	 0.000000	 0.137269
			CHANNELS 3 Zrotation Xrotation Yrotation
			JOINT Spine2
			{
				OFFSET	 0.000000	 0.000000	 0.156879
				CHANNELS 3 Zrotation Xrotation Yrotation
				JOINT LeftShoulder
				{
					OFFSET	 0.080501	-0.002496	 0.160144
					CHANNELS 3 Zrotation Xrotation Yrotation
					JOINT LeftArm
					{
						OFFSET	 0.000000	 0.000000	 0.164363
						CHANNELS 3 Zrotation Xrotation Yrotation
						JOINT LeftForeArm
						{
							OFFSET	 0.000000	 0.000000	 0.364576
							CHANNELS 3 Zrotation Xrotation Yrotation
							JOINT LeftHand
							{
								OFFSET	 0.000000	 0.000000	 0.360812
								CHANNELS 3 Zrotation Xrotation Yrotation
								JOINT LeftHandIndex1
								{
									OFFSET	 0.000000	 0.000000	 0.086006
									CHANNELS 3 Zrotation Xrotation Yrotation
									JOINT LeftHandIndex2
									{
										OFFSET	 0.000000	 0.000000	 0.047236
										CHANNELS 3 Zrotation Xrotation Yrotation
										JOINT LeftHandIndex3
										{
											OFFSET	-0.004284	-0.000551	 0.038166
											CHANNELS 3 Zrotation Xrotation Yrotation
											End Site
											{
												OFFSET	-0.004284	-0.000551	 0.038166
											}
										}
									}
								}
							}
						}
					}
				}
				JOINT Neck
				{
					OFFSET	 0.000000	 0.000000	 0.176489
					CHANNELS 3 Zrotation Xrotation Yrotation
					JOINT Head
					{
						OFFSET	 0.000000	-0.001747	 0.077940
						CHANNELS 3 Zrotation Xrotation Yrotation
						End Site
						{
							OFFSET	 0.000000	-0.001747	 0.077940
						}
					}
				}
				JOINT RightShoulder
				{
					OFFSET	-0.080363	 0.000306	 0.159706
					CHANNELS 3 Zrotation Xrotation Yrotation
					JOINT RightArm
					{
						OFFSET	 0.000000	 0.000000	 0.164196
						CHANNELS 3 Zrotation Xrotation Yrotation
						JOINT RightForeArm
						{
							OFFSET	 0.000000	 0.000000	 0.365611
							CHANNELS 3 Zrotation Xrotation Yrotation
							JOINT RightHand
							{
								OFFSET	 0.000000	 0.000000	 0.360648
								CHANNELS 3 Zrotation Xrotation Yrotation
								JOINT RightHandIndex1
								{
									OFFSET	 0.000000	 0.000000	 0.069977
									CHANNELS 3 Zrotation Xrotation Yrotation
									JOINT RightHandIndex2
									{
										OFFSET	 0.000000	 0.000000	 0.052305
										CHANNELS 3 Zrotation Xrotation Yrotation
										JOINT RightHandIndex3
										{
											OFFSET	 0.009002	-0.000782	 0.042196
											CHANNELS 3 Zrotation Xrotation Yrotation
											End Site
											{
												OFFSET	 0.009002	-0.000782	 0.042196
											}
										}
									}
								}
							}
						}
					}
				}
			}
		}
	}
}
MOTION
Frames:    4
Frame Time: 0.03333334
 0.010705	 0.034687	 1.189554	 5.788456	-0.754206	-3.665394	 10.383270	-12.038890	-173.599800	 1.316130	-41.960980	 0.644191	 71.043460	 82.926630	-75.290760	-2.368419	 31.776680	-0.073590	-18.484440	-34.879950	-175.891500	 12.277750	-51.713540	 10.299870	 29.092150	 83.502490	-25.499460	 2.359023	 32.993150	 0.103060	-0.880044	 8.544844	 0.565069	 1.907327	 2.133427	 3.624529	-9.461917	-1.725965	-4.213391	-94.123750	 58.983250	 174.990800	 16.888160	 34.475580	-36.105250	-2.343466	-0.037036	-0.975437	 1.567685	-6.985067	-8.133507	-4.864412	 19.390200	-2.800611	-3.869163	 21.630640	 2.190195	-4.804125	 5.594239	 0.144114	-0.036295	-5.106913	 0.235085	-11.292860	 2.079309	 1.931466	 89.709880	 61.769530	 179.827100	-18.314940	 50.510330	 7.841295	-1.402589	-2.377834	 12.835330	-5.119473	 8.641257	 0.317020	 6.275668	 23.506940	-0.552262	 2.047171	 43.359540	-7.136681	 0.808783	 23.023100	 3.427603
 0.009937	 0.005326	 1.182284	 6.327313	-0.016014	-3.880855	 10.393490	-11.724770	-173.780700	 1.592462	-42.994950	 0.845498	 85.015210	 83.608250	-89.427560	-2.366392	 32.105250	-0.081076	-20.649040	-37.996210	-177.111000	 12.720480	-48.414710	 10.163640	 51.867250	 85.417940	-49.547790	 2.360568	 32.762140	 0.097710	-2.686908	 8.091182	 0.632557	 1.791021	 1.847330	 3.677563	-9.318327	-1.380779	-4.078524	-94.306020	 58.988500	 174.601300	 15.528180	 32.217790	-37.086540	-3.446477	-0.016546	-1.272456	 1.771790	-7.566168	-8.032042	-4.851819	 19.683030	-2.814058	-3.854457	 21.817630	 2.175241	-4.797115	 5.676778	 0.139280	-0.011086	-5.160134	 0.293839	-11.094010	 2.338655	 1.936281	 89.601360	 61.910450	 179.564900	-17.851890	 51.185220	 6.597131	-1.928240	-2.428758	 12.855900	-5.505744	 9.272619	-0.372102	 6.249324	 21.885750	-0.598826	 2.204392	 41.986490	-7.275167	 1.170493	 21.378740	 3.255075
 0.008458	-0.047827	 1.170206	 6.629864	 0.665166	-4.301256	 10.643780	-9.889524	-174.282300	 1.828077	-43.824860	 1.021736	 109.028500	 84.121000	-113.424300	-2.358889	 33.247410	-0.107411	-21.178340	-41.172310	-178.435700	 11.711620	-41.156540	 8.280377	 115.012900	 84.492810	-113.946100	 2.352873	 33.866630	 0.123509	-5.434033	 7.505941	 0.960275	 1.558368	 2.126832	 3.456248	-8.838171	-1.100249	-3.725224	-94.469410	 58.962850	 174.257300	 12.744110	 28.846810	-38.694850	-5.172878	 0.025303	-1.737464	 1.407814	-8.009879	-7.301622	-4.826134	 20.209730	-2.822649	-3.825541	 22.182410	 2.145880	-4.771554	 5.977016	 0.121591	 0.022462	-5.275885	 0.342234	-10.578580	 2.679102	 1.956441	 89.448750	 62.045160	 179.193500	-16.813490	 52.032420	 5.201761	-3.095941	-2.186373	 11.245110	-6.025658	 9.972728	-2.117591	 6.197185	 19.112640	-0.706832	 2.526717	 38.940320	-7.555232	 1.762836	 18.591090	 2.991848
 0.004510	-0.113738	 1.151656	 7.054287	 0.727363	-4.439982	 10.533230	-6.885348	-175.636200	 2.393750	-44.885440	 1.440645	 123.432200	 84.825970	-127.743500	-2.321937	 37.728630	-0.216337	-21.364020	-44.350310	-179.871600	 11.614910	-35.113750	 7.191597	 89.876510	 84.887530	-89.675070	 2.336302	 35.962510	 0.173930	-9.478807	 7.713956	 1.133606	 1.212193	 1.964107	 3.134539	-7.897979	-0.768930	-3.254110	-94.537210	 59.007700	 174.105400	 9.365808	 26.313410	-40.077350	-6.285015	 0.087635	-2.328888	 0.833186	-9.443148	-7.796331	-4.855309	 20.533590	-3.087440	-3.782138	 22.723550	 2.101805	-4.710333	 6.690993	 0.078931	 0.129898	-5.424531	 0.328067	-9.507193	 3.192153	 1.738274	 89.357570	 61.865250	 178.979800	-15.034670	 52.419540	 3.273955	-4.145013	-1.625447	 8.979329	-6.001874	 9.641897	-4.167632	 6.170315	 15.591790	-0.607382	 2.914078	 34.817390	-7.883671	 2.473426	 15.098750	 2.709822
